<?xml version="1.0" encoding="UTF-8" standalone="no"?>
<!-- Created with Inkscape (http://www.inkscape.org/) -->

<svg
   xmlns:dc="http://purl.org/dc/elements/1.1/"
   xmlns:cc="http://creativecommons.org/ns#"
   xmlns:rdf="http://www.w3.org/1999/02/22-rdf-syntax-ns#"
   xmlns:svg="http://www.w3.org/2000/svg"
   xmlns="http://www.w3.org/2000/svg"
   xmlns:sodipodi="http://sodipodi.sourceforge.net/DTD/sodipodi-0.dtd"
   xmlns:inkscape="http://www.inkscape.org/namespaces/inkscape"
   width="160mm"
   height="129mm"
   viewBox="0 0 160 129"
   version="1.1"
   id="svg8"
   inkscape:version="0.92.4 (f8dce91, 2019-08-02)"
   sodipodi:docname="dynamic_port_white.svg"
   inkscape:export-filename="/home/aiko/dynamic_port.svg.png"
   inkscape:export-xdpi="300"
   inkscape:export-ydpi="300">
  <defs
     id="defs2">
    <inkscape:path-effect
       effect="bspline"
       id="path-effect893"
       is_visible="true"
       weight="33.333333"
       steps="2"
       helper_size="0"
       apply_no_weight="true"
       apply_with_weight="true"
       only_selected="false" />
    <inkscape:path-effect
       effect="bspline"
       id="path-effect867"
       is_visible="true"
       weight="33.333333"
       steps="2"
       helper_size="0"
       apply_no_weight="true"
       apply_with_weight="true"
       only_selected="false" />
    <inkscape:path-effect
       effect="bspline"
       id="path-effect845"
       is_visible="true"
       weight="33.333333"
       steps="2"
       helper_size="0"
       apply_no_weight="true"
       apply_with_weight="true"
       only_selected="false" />
    <inkscape:path-effect
       effect="bspline"
       id="path-effect823"
       is_visible="true"
       weight="33.333333"
       steps="2"
       helper_size="0"
       apply_no_weight="true"
       apply_with_weight="true"
       only_selected="false" />
    <inkscape:path-effect
       effect="bspline"
       id="path-effect819"
       is_visible="true"
       weight="33.333333"
       steps="2"
       helper_size="0"
       apply_no_weight="true"
       apply_with_weight="true"
       only_selected="false" />
    <inkscape:path-effect
       effect="bspline"
       id="path-effect823-3"
       is_visible="true"
       weight="33.333333"
       steps="2"
       helper_size="0"
       apply_no_weight="true"
       apply_with_weight="true"
       only_selected="false" />
    <inkscape:path-effect
       effect="bspline"
       id="path-effect845-7"
       is_visible="true"
       weight="33.333333"
       steps="2"
       helper_size="0"
       apply_no_weight="true"
       apply_with_weight="true"
       only_selected="false" />
    <inkscape:path-effect
       effect="bspline"
       id="path-effect867-3"
       is_visible="true"
       weight="33.333333"
       steps="2"
       helper_size="0"
       apply_no_weight="true"
       apply_with_weight="true"
       only_selected="false" />
  </defs>
  <sodipodi:namedview
     id="base"
     pagecolor="#ffffff"
     bordercolor="#666666"
     borderopacity="1.0"
     inkscape:pageopacity="0.0"
     inkscape:pageshadow="2"
     inkscape:zoom="2.4171874"
     inkscape:cx="296.95354"
     inkscape:cy="178.82421"
     inkscape:document-units="mm"
     inkscape:current-layer="layer1"
     showgrid="false"
     inkscape:window-width="3700"
     inkscape:window-height="2032"
     inkscape:window-x="140"
     inkscape:window-y="54"
     inkscape:window-maximized="1" />
  <metadata
     id="metadata5">
    <rdf:RDF>
      <cc:Work
         rdf:about="">
        <dc:format>image/svg+xml</dc:format>
        <dc:type
           rdf:resource="http://purl.org/dc/dcmitype/StillImage" />
        <dc:title></dc:title>
      </cc:Work>
    </rdf:RDF>
  </metadata>
  <g
     inkscape:groupmode="layer"
     id="layer2"
     inkscape:label="Hintergrund"
     transform="translate(0,-168)" />
  <g
     inkscape:label="Ebene 1"
     inkscape:groupmode="layer"
     id="layer1"
     transform="translate(0,-168)">
    <path
       style="fill:#008033;stroke:#008033;stroke-width:1.03782284;stroke-linecap:square;stroke-linejoin:miter;stroke-miterlimit:4;stroke-dasharray:none;stroke-opacity:1"
       d="m 29.335058,106.73313 c 0,36.79592 0,73.59208 0,110.38851"
       id="path817"
       inkscape:connector-curvature="0"
       inkscape:path-effect="#path-effect819"
       inkscape:original-d="m 29.335058,106.73313 c 2.64e-4,36.79592 2.64e-4,73.59208 0,110.38851"
       transform="translate(-21.671811,73.064961)" />
    <path
       style="fill:#217821;stroke:#217821;stroke-width:1.08700001;stroke-linecap:square;stroke-linejoin:miter;stroke-miterlimit:4;stroke-dasharray:none;stroke-opacity:1"
       d="m 91.945702,100.84917 c -20.778775,1.94818 -41.557859,3.89638 -62.337254,5.84462"
       id="path821"
       inkscape:connector-curvature="0"
       inkscape:path-effect="#path-effect823"
       inkscape:original-d="m 91.945702,100.84917 c -20.7788,1.94791 -41.557885,3.89611 -62.337254,5.84462"
       transform="translate(-21.671811,73.064961)" />
    <path
       style="fill:#217821;stroke:#217821;stroke-width:1.08700001;stroke-linecap:square;stroke-linejoin:miter;stroke-miterlimit:4;stroke-dasharray:none;stroke-opacity:1"
       d="m 91.945703,217.09481 c -20.869904,0 -41.740119,0 -62.610645,0"
       id="path821-6"
       inkscape:connector-curvature="0"
       inkscape:path-effect="#path-effect823-3"
       inkscape:original-d="m 91.945703,217.09481 c -20.869904,-2.7e-4 -41.740119,-2.7e-4 -62.610645,0"
       transform="translate(-21.671811,73.064961)" />
    <path
       style="fill:#008000;stroke:#008000;stroke-width:1.06500006;stroke-linecap:square;stroke-linejoin:miter;stroke-miterlimit:4;stroke-dasharray:none;stroke-opacity:1"
       d="m 91.945702,100.84917 c 0,16.7105 0,33.42127 0,50.1323"
       id="path843"
       inkscape:connector-curvature="0"
       inkscape:path-effect="#path-effect845"
       inkscape:original-d="m 91.945702,100.84917 c 2.64e-4,16.7105 2.64e-4,33.42127 0,50.1323"
       transform="translate(-21.671811,73.064961)" />
    <path
       style="fill:#008000;stroke:#008000;stroke-width:1.09599996;stroke-linecap:square;stroke-linejoin:miter;stroke-miterlimit:4;stroke-dasharray:none;stroke-opacity:1"
       d="m 91.945703,189.07326 c 0,9.34037 0,18.68089 0,28.02155"
       id="path843-5"
       inkscape:connector-curvature="0"
       inkscape:path-effect="#path-effect845-7"
       inkscape:original-d="m 91.945703,189.07326 c 2.6e-4,9.34037 2.6e-4,18.68089 0,28.02155"
       transform="translate(-21.671811,73.064961)" />
    <path
       style="fill:#217821;stroke:#aa0000;stroke-width:1.06500006;stroke-linecap:butt;stroke-linejoin:miter;stroke-miterlimit:4;stroke-dasharray:none;stroke-opacity:1"
       d="m 86.253824,188.4165 c 3.867822,0 7.73538,0 11.602672,0"
       id="path865"
       inkscape:connector-curvature="0"
       inkscape:path-effect="#path-effect867"
       inkscape:original-d="m 86.253824,188.4165 c 3.867822,-2.6e-4 7.73538,-2.6e-4 11.602672,0"
       transform="matrix(3,0,0,1,-205.67267,73.064961)" />
    <path
       style="fill:#d40000;stroke:#aa0000;stroke-width:1.06500006;stroke-linecap:butt;stroke-linejoin:miter;stroke-miterlimit:4;stroke-dasharray:none;stroke-opacity:1"
       d="m 86.144361,151.63822 c 3.86783,0 7.73538,0 11.60268,0"
       id="path865-5"
       inkscape:connector-curvature="0"
       inkscape:path-effect="#path-effect867-3"
       inkscape:original-d="m 86.144361,151.63822 c 3.86783,-2.6e-4 7.73538,-2.6e-4 11.60268,0"
       transform="matrix(3,0,0,1,-205.67267,73.064961)" />
    <path
       style="font-style:normal;font-variant:normal;font-weight:300;font-stretch:normal;font-size:19.75555611px;line-height:5.25;font-family:Montserrat;-inkscape-font-specification:'Montserrat Light';letter-spacing:-0.65616679px;word-spacing:-0.44449994px;fill:#217821;fill-opacity:1;stroke:#217821;stroke-width:0.75590551;stroke-miterlimit:4;stroke-dasharray:none"
       d="M 138.16406 241.97852 L 138.16406 264.07227 C 136.75434 261.6417 134.96788 259.84245 132.80469 258.67578 C 130.6658 257.4848 128.09006 256.88867 125.07617 256.88867 C 120.14214 256.88867 116.11892 258.85741 113.00781 262.79492 C 109.92101 266.73241 108.37695 271.90949 108.37695 278.32617 C 108.37695 282.25998 108.9627 285.72258 110.12305 288.72461 L 117.37695 288.37305 C 116.00227 285.74079 115.30469 282.39936 115.30469 278.32617 C 115.30469 273.39215 116.31272 269.52756 118.33008 266.73242 C 120.37175 263.91297 123.16819 262.50391 126.7168 262.50391 C 130.26541 262.50391 133.0599 263.91297 135.10156 266.73242 C 137.14323 269.52756 138.16406 273.39215 138.16406 278.32617 C 138.16406 281.93063 137.61303 284.96526 136.52344 287.44141 L 144.87305 287.03516 L 144.87305 241.97852 L 138.16406 241.97852 z M 356.43555 241.97852 L 356.43555 250.47266 L 363.14453 250.47266 L 363.14453 241.97852 L 356.43555 241.97852 z M 549.18359 246.2793 L 549.18359 257.87305 L 544.63086 257.87305 L 544.62695 257.25391 C 543.94639 257.13246 543.3266 257.04668 542.76758 256.99805 C 542.20854 256.92523 541.69814 256.88867 541.23633 256.88867 C 538.0037 256.88867 535.2565 257.4976 532.99609 258.71289 C 530.73566 259.90384 528.89995 261.73763 527.49023 264.2168 L 527.49023 257.87305 L 520.74609 257.87305 L 520.74609 268.76367 L 529.35742 268.3457 C 529.69999 267.71203 530.08035 267.11994 530.51758 266.58789 C 532.55925 264.10872 535.47593 262.86914 539.26758 262.86914 C 540.33703 262.86914 541.30858 262.97856 542.18359 263.19727 C 543.08289 263.39171 543.90865 263.70704 544.66211 264.14453 L 544.65625 263.08789 L 549.18359 263.08789 L 549.18359 267.38086 L 555.92773 267.05469 L 555.92773 263.08789 L 569.74609 263.08789 L 569.74609 257.87305 L 555.92773 257.87305 L 555.92773 246.2793 L 549.18359 246.2793 z M 217.60547 256.88867 C 214.76172 256.88867 212.24609 257.4976 210.05859 258.71289 C 207.8954 259.92816 206.01042 261.76194 204.40625 264.2168 L 204.40625 257.87305 L 197.66211 257.87305 L 197.66211 284.46875 L 204.40625 284.14258 L 204.40625 275.62891 C 204.40625 271.64281 205.45269 268.49459 207.54297 266.18555 C 209.63325 263.87653 212.48785 262.72266 216.10938 262.72266 C 219.12326 262.72266 221.38369 263.68339 222.89062 265.60352 C 224.39757 267.52367 225.15234 270.41473 225.15234 274.2793 L 225.15234 283.13281 L 231.85938 282.80664 L 231.85938 274.06055 C 231.85937 268.42164 230.65625 264.15602 228.25 261.26367 C 225.84375 258.34699 222.29644 256.88867 217.60547 256.88867 z M 257.16211 256.88867 C 254.97461 256.88867 252.72504 257.13302 250.41602 257.61914 C 248.10699 258.08095 245.72635 258.78452 243.27148 259.73242 L 243.27148 265.93164 C 245.31315 264.81358 247.43858 263.97503 249.65039 263.41602 C 251.8622 262.85697 254.13542 262.57617 256.46875 262.57617 C 260.13889 262.57617 262.98264 263.42751 265 265.12891 C 267.04167 266.80598 268.0625 269.18857 268.0625 272.27539 L 268.0625 272.93164 L 258.65625 272.93164 C 252.55556 272.93164 247.96181 274.09831 244.875 276.43164 C 242.89834 277.93766 241.56999 279.92145 240.86914 282.36914 L 248.08984 282.01758 C 248.5955 281.21413 249.26717 280.54973 250.125 280.04102 C 252.21528 278.80143 255.9705 278.18164 261.39062 278.18164 L 268.0625 278.18164 L 268.0625 279.67578 C 268.0625 280.1452 268.0436 280.59927 268.01758 281.04883 L 274.77148 280.7207 L 274.77148 275.41016 C 274.77148 269.18792 273.31315 264.54492 270.39648 261.48242 C 267.47982 258.41992 263.06836 256.88867 257.16211 256.88867 z M 305.75977 256.88867 C 302.81879 256.88867 300.27951 257.4848 298.14062 258.67578 C 296.00174 259.86676 294.16602 261.71334 292.63477 264.2168 L 292.63477 257.87305 L 285.89062 257.87305 L 285.89062 280.18164 L 292.63477 279.85352 L 292.63477 275.62891 C 292.63477 271.6671 293.64279 268.53167 295.66016 266.22266 C 297.67752 263.88933 300.40105 262.72266 303.82812 262.72266 C 306.72049 262.72266 308.85872 263.6706 310.24414 265.56641 C 311.62956 267.43795 312.32227 270.34181 312.32227 274.2793 L 312.32227 278.89648 L 319.06641 278.56836 L 319.06641 275.62891 C 319.06641 271.64281 320.07639 268.49459 322.09375 266.18555 C 324.11111 263.87653 326.85634 262.72266 330.33203 262.72266 C 333.17578 262.72266 335.29036 263.6706 336.67578 265.56641 C 338.0612 267.46224 338.75391 270.3661 338.75391 274.2793 L 338.75391 277.61133 L 345.5 277.2832 L 345.5 274.06055 C 345.5 268.56748 344.34418 264.33834 342.03516 261.37305 C 339.72613 258.38347 336.44488 256.88867 332.19141 256.88867 C 329.03168 256.88867 326.28646 257.60699 323.95312 259.04102 C 321.6198 260.47504 319.61458 262.69899 317.9375 265.71289 C 316.94097 262.84483 315.39692 260.65734 313.30664 259.15039 C 311.24067 257.64344 308.72504 256.88867 305.75977 256.88867 z M 392.27344 256.88867 C 385.90539 256.88867 380.88693 258.79729 377.2168 262.61328 C 374.00619 265.9737 372.21335 270.43827 371.83008 276.00391 L 378.96094 275.65625 C 379.3273 271.9476 380.47427 268.96435 382.42969 266.73242 C 384.83594 263.96157 388.21376 262.57617 392.56445 262.57617 C 394.50892 262.57617 396.43036 262.84418 398.32617 263.37891 C 400.24632 263.88932 402.15299 264.66775 404.04883 265.71289 L 404.04883 259.44141 C 402.2016 258.59071 400.29493 257.9581 398.32617 257.54492 C 396.35744 257.1074 394.33943 256.88867 392.27344 256.88867 z M 452.46094 256.88867 C 449.47136 256.88867 446.8956 257.4848 444.73242 258.67578 C 442.59351 259.84245 440.81987 261.6417 439.41016 264.07227 L 439.41016 257.87305 L 432.66406 257.87305 L 432.66406 273.04492 L 439.95312 272.69141 C 440.44424 270.34852 441.26464 268.35476 442.43555 266.73242 C 444.47722 263.91297 447.27171 262.50391 450.82031 262.50391 C 454.36894 262.50391 457.15256 263.91297 459.16992 266.73242 C 460.1761 268.10994 460.93109 269.74948 461.44141 271.64648 L 468.45703 271.30664 C 467.71358 268.01878 466.41072 265.1761 464.5293 262.79492 C 461.44248 258.85741 457.41927 256.88867 452.46094 256.88867 z M 493.6582 256.88867 C 487.80054 256.88867 483.20679 258.7845 479.87695 262.57617 C 477.90087 264.84284 476.52877 267.64218 475.73438 270.95117 L 483.1543 270.5918 C 483.65276 269.17121 484.30571 267.90482 485.12695 266.80664 C 487.21723 263.98719 490.06097 262.57617 493.6582 262.57617 C 497.23112 262.57617 500.06402 263.99806 502.1543 266.8418 C 502.76684 267.66803 503.27797 268.59232 503.71094 269.5918 L 511.10352 269.23242 C 510.27144 266.66247 509.0418 264.44078 507.4043 262.57617 C 504.07443 258.7845 499.49153 256.88867 493.6582 256.88867 z M 151.39648 257.87305 L 163.02148 286.1543 L 169.67773 285.83008 L 158.50586 257.87305 L 151.39648 257.87305 z M 184.02734 257.87305 L 172.91992 285.67188 L 180.10352 285.32227 L 191.13672 257.87305 L 184.02734 257.87305 z M 356.43555 257.87305 L 356.43555 276.75195 L 363.14453 276.42578 L 363.14453 257.87305 L 356.43555 257.87305 z M 555.92773 273.05273 L 549.18359 273.38086 L 549.18359 285.25391 C 549.18359 290.35808 550.16796 293.88173 552.13672 295.82617 C 554.10545 297.7463 557.67837 298.70703 562.85547 298.70703 L 569.74609 298.70703 L 569.74609 293.0918 L 562.85547 293.0918 C 560.06033 293.0918 558.20096 292.61785 557.27734 291.66992 C 556.37804 290.72202 555.92773 288.58377 555.92773 285.25391 L 555.92773 273.05273 z M 527.63477 274.42773 L 520.74609 274.76172 L 520.74609 298.70703 L 527.49023 298.70703 L 527.49023 277.19727 C 527.49023 276.22258 527.54481 275.30606 527.63477 274.42773 z M 512.24805 275.17578 L 505.14844 275.51953 C 505.23432 276.41725 505.28906 277.34553 505.28906 278.32617 C 505.28906 283.18727 504.24455 287.0282 502.1543 289.84766 C 500.06402 292.66711 497.23112 294.07617 493.6582 294.07617 C 490.03666 294.07617 487.18208 292.6799 485.0918 289.88477 C 483.02583 287.06531 481.99219 283.21159 481.99219 278.32617 C 481.99219 277.75027 482.01003 277.19136 482.03906 276.64453 L 474.96289 276.98828 C 474.94747 277.43308 474.91992 277.86775 474.91992 278.32617 C 474.91992 285.01019 476.57138 290.26018 479.87695 294.07617 C 483.20679 297.86782 487.80054 299.76367 493.6582 299.76367 C 499.49153 299.76367 504.07443 297.86782 507.4043 294.07617 C 510.73416 290.26018 512.39844 285.01019 512.39844 278.32617 C 512.39844 277.23242 512.33654 276.192 512.24805 275.17578 z M 469.16211 277.26953 L 462.21289 277.60742 C 462.21797 277.84826 462.23242 278.08001 462.23242 278.32617 C 462.23242 283.26019 461.21157 287.13758 459.16992 289.95703 C 457.15256 292.75217 454.36894 294.15039 450.82031 294.15039 C 447.27171 294.15039 444.47722 292.75217 442.43555 289.95703 C 440.47261 287.21365 439.47285 283.46027 439.41992 278.71484 L 432.66406 279.04297 L 432.66406 314.23828 L 439.41016 314.23828 L 439.41016 292.58203 C 440.81987 295.0126 442.59351 296.82272 444.73242 298.01367 C 446.8956 299.18034 449.47136 299.76367 452.46094 299.76367 C 457.41927 299.76367 461.44248 297.79491 464.5293 293.85742 C 467.6404 289.91991 469.19531 284.74283 469.19531 278.32617 C 469.19531 277.96516 469.17195 277.6227 469.16211 277.26953 z M 379.02539 281.65039 L 371.97461 281.99414 C 372.54276 286.85411 374.26406 290.85548 377.17969 293.9668 C 380.80121 297.83136 385.68662 299.76367 391.83594 299.76367 C 394.09635 299.76367 396.22373 299.54491 398.2168 299.10742 C 400.23416 298.66993 402.17731 298.01368 404.04883 297.13867 L 404.04883 290.94141 C 402.15299 291.98655 400.24632 292.77584 398.32617 293.31055 C 396.43036 293.82098 394.50892 294.07617 392.56445 294.07617 C 388.21376 294.07617 384.83594 292.70356 382.42969 289.95703 C 380.589 287.83744 379.45802 285.06442 379.02539 281.65039 z M 363.14453 282.42383 L 356.43555 282.74805 L 356.43555 298.70703 L 363.14453 298.70703 L 363.14453 282.42383 z M 345.5 283.28125 L 338.75391 283.60938 L 338.75391 298.70703 L 345.5 298.70703 L 345.5 283.28125 z M 319.06641 284.56641 L 312.32227 284.89258 L 312.32227 298.70703 L 319.06641 298.70703 L 319.06641 284.56641 z M 292.63477 285.84961 L 285.89062 286.17773 L 285.89062 298.70703 L 292.63477 298.70703 L 292.63477 285.84961 z M 274.77148 286.71875 L 266.61914 287.11523 C 266.10537 288.25133 265.46146 289.28746 264.67188 290.21289 C 262.43576 292.8379 259.45898 294.15039 255.74023 294.15039 C 253.04232 294.15039 250.90213 293.45769 249.32227 292.07227 C 248.15146 291.01123 247.42399 289.6743 247.13477 288.0625 L 240.35352 288.39062 C 240.64326 291.60267 241.84384 294.22854 243.96289 296.26367 C 246.44206 298.597 249.77258 299.76367 253.95312 299.76367 C 257.25868 299.76367 260.05317 299.18034 262.33789 298.01367 C 264.62261 296.82272 266.53125 294.98893 268.0625 292.50977 L 268.0625 298.70703 L 274.77148 298.70703 L 274.77148 286.71875 z M 231.85938 288.80469 L 225.15234 289.13086 L 225.15234 298.70703 L 231.85938 298.70703 L 231.85938 288.80469 z M 204.40625 290.13867 L 197.66211 290.4668 L 197.66211 298.70703 L 204.40625 298.70703 L 204.40625 290.13867 z M 177.64453 291.43945 L 165.4375 292.0332 L 167.91211 298.05078 L 166.70898 301.11328 C 165.4694 304.37023 164.33919 306.43556 163.31836 307.31055 C 162.29752 308.18556 160.8648 308.62305 159.01758 308.62305 L 155.08008 308.62305 L 155.08008 314.23828 L 160.43945 314.23828 C 163.45334 314.23828 165.85959 313.4963 167.6582 312.01367 C 169.45681 310.53104 171.30339 307.35917 173.19922 302.49805 L 177.64453 291.43945 z M 144.87305 293.0332 L 138.16406 293.35938 L 138.16406 298.70703 L 144.87305 298.70703 L 144.87305 293.0332 z M 137.66797 293.38281 L 129.64453 293.77344 C 128.73109 294.01542 127.76073 294.15039 126.7168 294.15039 C 126.08853 294.15039 125.49321 294.0896 124.91211 294.00195 L 113.61328 294.55273 C 116.63654 298.01199 120.45147 299.76367 125.07617 299.76367 C 128.09006 299.76367 130.6658 299.18034 132.80469 298.01367 C 134.7226 296.95776 136.34235 295.41305 137.66797 293.38281 z "
       transform="matrix(0.26458333,0,0,0.26458333,0,168)"
       id="path37" />
    <text
       xml:space="preserve"
       style="font-style:normal;font-weight:normal;font-size:10.58333302px;line-height:1.25;font-family:sans-serif;letter-spacing:0px;word-spacing:0px;fill:#000000;fill-opacity:1;stroke:none;stroke-width:0;stroke-miterlimit:4;stroke-dasharray:none"
       x="72.70443"
       y="288.36346"
       id="text889-7"><tspan
         sodipodi:role="line"
         id="tspan887-5"
         x="72.70443"
         y="288.36346"
         style="font-style:normal;font-variant:normal;font-weight:300;font-stretch:normal;font-size:11.28888893px;line-height:5.25;font-family:Montserrat;-inkscape-font-specification:'Montserrat Light';letter-spacing:-0.65616679px;word-spacing:-0.44449994px;fill:#217821;stroke:#217821;stroke-width:0;stroke-miterlimit:4;stroke-dasharray:none">FNTI-Hackspace</tspan></text>
  </g>
</svg>
